nColumns=28
nRows=40
DataType=double
version=3
OpenSimVersion=4.1
endheader
time	ground_force_1_vx	ground_force_1_vy	ground_force_1_vz	ground_force_1_px	ground_force_1_py	ground_force_1_pz	ground_force_1_mx	ground_force_1_my	ground_force_1_mz	ground_force_2_vx	ground_force_2_vy	ground_force_2_vz	ground_force_2_px	ground_force_2_py	ground_force_2_pz	ground_force_2_mx	ground_force_2_my	ground_force_2_mz	ground_force_3_vx	ground_force_3_vy	ground_force_3_vz	ground_force_3_px	ground_force_3_py	ground_force_3_pz	ground_force_3_mx	ground_force_3_my	ground_force_3_mz
6.73	-1.49	322.022	-37.3412	-0.251609	0.006	-0.40865	0	-1.96079	0	-2.23308	309.211	37.3359	-0.248937	0.006	-0.787486	0	3.09318	0	0	0	0	0	0	0	0	0	0
6.74	-1.8946	323.408	-37.4762	-0.251466	0.006	-0.408671	0	-1.96422	0	-2.53149	309.608	37.4681	-0.248828	0.006	-0.78748	0	3.07113	0	0	0	0	0	0	0	0	0	0
6.75	-2.46073	324.486	-37.7564	-0.251372	0.006	-0.408616	0	-1.9501	0	-2.6944	309.999	37.5533	-0.248892	0.006	-0.78756	0	3.07236	0	0	0	0	0	0	0	0	0	0
6.76	-2.73411	324.502	-37.9957	-0.251579	0.006	-0.408676	0	-1.91489	0	-2.65302	310.864	37.7008	-0.248994	0.006	-0.787559	0	3.12682	0	0	0	0	0	0	0	0	0	0
6.77	-2.28799	324.357	-38.1143	-0.251997	0.006	-0.408827	0	-1.90637	0	-2.33466	312.513	37.8038	-0.249143	0.006	-0.787547	0	3.17589	0	0	0	0	0	0	0	0	0	0
6.78	-1.42682	324.728	-38.1207	-0.252569	0.006	-0.409068	0	-1.88621	0	-1.75991	314.833	37.9046	-0.249624	0.006	-0.787618	0	3.18264	0	0	0	0	0	0	0	0	0	0
6.79	-0.43844	326.117	-38.2571	-0.253278	0.006	-0.409131	0	-1.85956	0	-0.842198	317.978	38.1672	-0.250288	0.006	-0.787659	0	3.14628	0	0	0	0	0	0	0	0	0	0
6.8	0.712531	328.228	-38.4845	-0.254116	0.006	-0.409214	0	-1.84491	0	0.0237643	322.139	38.4838	-0.250993	0.006	-0.787626	0	3.10733	0	0	0	0	0	0	0	0	0	0
6.81	2.00862	330.634	-38.5132	-0.255046	0.006	-0.409575	0	-1.83145	0	0.580689	327.526	38.9385	-0.251782	0.006	-0.787522	0	3.13435	0	0	0	0	0	0	0	0	0	0
6.82	3.15772	333.685	-38.324	-0.255919	0.006	-0.409991	0	-1.7994	0	0.791046	334.027	39.6916	-0.252291	0.006	-0.787465	0	3.1352	0	0	0	0	0	0	0	0	0	0
6.83	3.90357	337.487	-38.1168	-0.256787	0.006	-0.410206	0	-1.78119	0	0.854453	341.146	40.5064	-0.252802	0.006	-0.787729	0	3.13064	0	0	0	0	0	0	0	0	0	0
6.84	4.27921	341.147	-37.9645	-0.257543	0.006	-0.410412	0	-1.79901	0	1.02958	348.729	41.5598	-0.253435	0.006	-0.787939	0	3.18264	0	0	0	0	0	0	0	0	0	0
6.85	4.5694	344.01	-38.0223	-0.258335	0.006	-0.4107	0	-1.82313	0	0.963515	356.115	42.8954	-0.254002	0.006	-0.788121	0	3.24756	0	0	0	0	0	0	0	0	0	0
6.86	5.22069	346.506	-38.2939	-0.259199	0.006	-0.410788	0	-1.85938	0	0.665807	362.088	44.279	-0.254356	0.006	-0.78831	0	3.28432	0	0	0	0	0	0	0	0	0	0
6.87	6.1725	348.246	-38.8148	-0.260082	0.006	-0.410808	0	-1.91213	0	0.354988	366.628	45.5683	-0.254515	0.006	-0.788349	0	3.30075	0	0	0	0	0	0	0	0	0	0
6.88	6.86672	349.279	-39.6415	-0.260791	0.006	-0.41082	0	-1.94666	0	0.325697	370.749	46.8796	-0.254987	0.006	-0.788538	0	3.3524	0	0	0	0	0	0	0	0	0	0
6.89	7.03625	350.31	-40.6086	-0.26122	0.006	-0.410602	0	-1.96671	0	0.440075	375.02	48.2392	-0.255607	0.006	-0.78885	0	3.35409	0	0	0	0	0	0	0	0	0	0
6.9	6.93064	350.527	-41.561	-0.261792	0.006	-0.410482	0	-1.99135	0	0.42147	379.023	49.446	-0.256137	0.006	-0.788948	0	3.32031	0	0	0	0	0	0	0	0	0	0
6.91	7.04268	350.216	-42.3806	-0.26265	0.006	-0.410554	0	-2.00201	0	0.108641	382.108	50.1575	-0.256603	0.006	-0.788869	0	3.3027	0	0	0	0	0	0	0	0	0	0
6.92	7.36411	350.274	-42.955	-0.263399	0.006	-0.410582	0	-1.9696	0	-0.393827	383.506	50.4415	-0.25698	0.006	-0.788767	0	3.28186	0	0	0	0	0	0	0	0	0	0
6.93	7.62558	349.372	-43.1328	-0.264064	0.006	-0.410619	0	-1.90904	0	-0.872276	383.379	50.5539	-0.257263	0.006	-0.788824	0	3.23687	0	0	0	0	0	0	0	0	0	0
6.94	8.05633	346.96	-43.111	-0.26481	0.006	-0.410783	0	-1.86806	0	-1.1376	382.222	50.604	-0.257673	0.006	-0.788735	0	3.1848	0	0	0	0	0	0	0	0	0	0
6.95	8.80252	343.649	-43.158	-0.265508	0.006	-0.411056	0	-1.86111	0	-1.27089	380.525	50.639	-0.257765	0.006	-0.788528	0	3.1259	0	0	0	0	0	0	0	0	0	0
6.96	9.69408	340.239	-43.2717	-0.266062	0.006	-0.411153	0	-1.82407	0	-1.68393	378.713	50.6343	-0.257654	0.006	-0.78838	0	3.05032	0	0	0	0	0	0	0	0	0	0
6.97	10.408	338.067	-43.3436	-0.266288	0.006	-0.41118	0	-1.72906	0	-2.18971	376.814	50.5566	-0.257662	0.006	-0.788292	0	2.97581	0	0	0	0	0	0	0	0	0	0
6.98	10.2491	336.66	-43.5237	-0.266079	0.006	-0.411306	0	-1.64498	0	-2.09011	375.096	50.5501	-0.257943	0.006	-0.788196	0	2.91857	0	0	0	0	0	0	0	0	0	0
6.99	9.20876	335.356	-43.8186	-0.265618	0.006	-0.411466	0	-1.5629	0	-1.50291	373.631	50.7721	-0.258255	0.006	-0.788109	0	2.86276	0	0	0	0	0	0	0	0	0	0
7	8.22077	334.413	-44.0528	-0.265163	0.006	-0.411514	0	-1.47707	0	-1.00786	372.051	51.1117	-0.258491	0.006	-0.788029	0	2.82279	0	0	0	0	0	0	0	0	0	0
7.01	7.82737	333.045	-44.168	-0.265136	0.006	-0.411664	0	-1.4061	0	-0.671576	370.425	51.7405	-0.25883	0.006	-0.787891	0	2.7589	0	0	0	0	0	0	0	0	0	0
7.02	8.0672	331.742	-44.2804	-0.265398	0.006	-0.411897	0	-1.3444	0	-0.389572	368.53	52.4338	-0.259081	0.006	-0.787769	0	2.70098	0	0	0	0	0	0	0	0	0	0
7.03	8.23363	329.693	-44.0396	-0.265609	0.006	-0.412247	0	-1.26581	0	-0.315337	366.112	52.9593	-0.259164	0.006	-0.787547	0	2.66986	0	0	0	0	0	0	0	0	0	0
7.04	8.10287	327.499	-43.7015	-0.265666	0.006	-0.412499	0	-1.18282	0	-0.510848	364.01	53.0985	-0.258989	0.006	-0.787443	0	2.60773	0	0	0	0	0	0	0	0	0	0
7.05	7.93117	325.804	-43.5563	-0.265416	0.006	-0.412404	0	-1.10958	0	-0.713488	362.109	52.7074	-0.258697	0.006	-0.787498	0	2.56393	0	0	0	0	0	0	0	0	0	0
7.06	7.7291	322.895	-43.4398	-0.265125	0.006	-0.412317	0	-1.04351	0	-0.637106	359.665	52.237	-0.258736	0.006	-0.787429	0	2.55876	0	0	0	0	0	0	0	0	0	0
7.07	7.75241	319.107	-43.3757	-0.264948	0.006	-0.412524	0	-0.999176	0	-0.240922	356.903	51.9943	-0.258928	0.006	-0.78746	0	2.57833	0	0	0	0	0	0	0	0	0	0
7.08	8.17278	315.508	-43.4048	-0.264886	0.006	-0.412732	0	-0.965548	0	0.0487071	353.07	51.8096	-0.259203	0.006	-0.78735	0	2.581	0	0	0	0	0	0	0	0	0	0
7.09	8.5424	312.519	-43.3515	-0.264842	0.006	-0.412734	0	-0.930879	0	0.12027	348.174	51.6923	-0.259494	0.006	-0.787263	0	2.60009	0	0	0	0	0	0	0	0	0	0
7.1	8.52755	309.607	-43.1011	-0.26459	0.006	-0.412504	0	-0.883414	0	0.195917	343.612	51.647	-0.259686	0.006	-0.787428	0	2.6465	0	0	0	0	0	0	0	0	0	0
7.11	8.21047	306.316	-43.0062	-0.26419	0.006	-0.412265	0	-0.829213	0	0.308121	340.063	51.8206	-0.259538	0.006	-0.787623	0	2.70264	0	0	0	0	0	0	0	0	0	0
7.12	7.70419	303.624	-43.4938	-0.263629	0.006	-0.41212	0	-0.810697	0	0.206904	337.248	52.3214	-0.259299	0.006	-0.78791	0	2.78061	0	0	0	0	0	0	0	0	0	0
